<svg height='300px' width='300px'  fill="#A2A2A2" xmlns="http://www.w3.org/2000/svg" xmlns:xlink="http://www.w3.org/1999/xlink" version="1.1" x="0px" y="0px" viewBox="0 0 100 100" enable-background="new 0 0 100 100" xml:space="preserve"><polygon fill-rule="evenodd" clip-rule="evenodd" points="49.862,40.927 49.862,97.557 14.93,87.542 14.93,58.688 42.239,60.252   49.862,40.927 "></polygon><polygon fill-rule="evenodd" clip-rule="evenodd" points="85.396,39.634 52.618,37.633 60.742,58.437 93.521,56.436 85.396,39.634   "></polygon><polygon fill-rule="evenodd" clip-rule="evenodd" points="52.14,40.927 59.763,60.252 87.07,58.688 87.07,87.542 52.14,97.557   52.14,40.927 "></polygon><polygon fill-rule="evenodd" clip-rule="evenodd" points="16.604,39.634 8.481,56.436 41.261,58.437 49.383,37.633 "></polygon><path d="M69.131,13.12c0,5.348-4.354,9.709-9.707,9.708c-5.354,0.002-9.708-4.359-9.708-9.708c-0.005-5.355,4.352-9.709,9.708-9.709  C64.777,3.41,69.131,7.767,69.131,13.12z"></path><path d="M44.576,12.828c0,2.896-2.357,5.257-5.255,5.256c-2.899,0.001-5.256-2.36-5.256-5.256c-0.002-2.899,2.355-5.257,5.256-5.257  C42.218,7.571,44.576,9.93,44.576,12.828z"></path><path d="M71.578,31.162c0,2.896-2.357,5.257-5.256,5.256c-2.899,0.001-5.256-2.36-5.256-5.256c-0.002-2.899,2.355-5.257,5.256-5.257  C69.221,25.904,71.578,28.264,71.578,31.162z"></path><path d="M54.859,27.476c0,2.896-2.355,5.256-5.256,5.256c-2.898,0-5.256-2.36-5.256-5.256c-0.003-2.899,2.356-5.258,5.256-5.258  C52.504,22.218,54.859,24.577,54.859,27.476z"></path><path d="M39.851,30.172c0,3.713-3.022,6.741-6.74,6.74c-3.717,0.001-6.738-3.027-6.738-6.74c-0.003-3.718,3.021-6.74,6.738-6.74  S39.851,26.456,39.851,30.172z"></path></svg>